PathFileType	4	(X/Y/Z)	 D:\Google Drive\Share to the world\OpenSim\ScaleTool\TRC\Walk_Mkrs.trc
DataRate	CameraRate	NumFrames	NumMarkers	Units	OrigDataRate	OrigDataStartFrame	OrigNumFrames
100	100	12	34	m	100	204	542
Frame#	time	C7			T10			CLAV			STRN			LSHO			LELB			LWRA			LWRB			LFIN			RSHO			RELB			RWRA			RWRB			RFIN			LASI			RASI			LPSI			RPSI			LTHI			LKNE			LTIB			LANK			LHEE			LTOE			RTHI			RKNE			RTIB			RANK			RHEE			RTOE			RPINKY			LPINKY			INRKNE			INLKNE			
		X1	Y1	Z1	X2	Y2	Z2	X3	Y3	Z3	X4	Y4	Z4	X5	Y5	Z5	X6	Y6	Z6	X7	Y7	Z7	X8	Y8	Z8	X9	Y9	Z9	X10	Y10	Z10	X11	Y11	Z11	X12	Y12	Z12	X13	Y13	Z13	X14	Y14	Z14	X15	Y15	Z15	X16	Y16	Z16	X17	Y17	Z17	X18	Y18	Z18	X19	Y19	Z19	X20	Y20	Z20	X21	Y21	Z21	X22	Y22	Z22	X23	Y23	Z23	X24	Y24	Z24	X25	Y25	Z25	X26	Y26	Z26	X27	Y27	Z27	X28	Y28	Z28	X29	Y29	Z29	X30	Y30	Z30	X31	Y31	Z31	X32	Y32	Z32	X33	Y33	Z33	X34	Y34	Z34	

204	2.0300	-1.883640	1.475880	0.136630	-1.957150	1.236290	0.138340	-1.756010	1.356560	0.166130	-1.747570	1.201600	0.161030	-1.796410	1.435440	-0.020420	-1.615880	1.197780	-0.087590	-1.387320	1.172870	0.022090	-1.391490	1.118060	-0.014700	-1.313200	1.132750	-0.002640	-1.852800	1.443520	0.320800	-2.000500	1.160900	0.413620	-1.996950	0.907850	0.398030	-2.044880	0.923930	0.434760	-2.039960	0.849720	0.437160	-1.803870	0.938380	0.035500	-1.799380	0.960810	0.299650	-1.951550	1.058800	0.110470	-1.952850	1.061090	0.196650	-1.912460	0.645210	0.012210	-1.974080	0.463160	0.040080	-2.068370	0.282420	0.035000	-2.137350	0.089780	0.083960	-2.182960	0.112550	0.119460	-1.995990	0.048810	0.140690	-1.758120	0.673470	0.340820	-1.682690	0.503410	0.310560	-1.647360	0.330810	0.326060	-1.577480	0.108960	0.283970	-1.635490	0.107740	0.245630	-1.427220	0.133580	0.237410	-1.461600	0.103380	0.298140	-2.042120	0.039850	0.052600	-1.693050	0.495050	0.204910	-2.014280	0.467450	0.137220	
205	2.0400	-1.876750	1.474300	0.138410	-1.950190	1.234710	0.139980	-1.749030	1.354890	0.167210	-1.740550	1.199920	0.161760	-1.789960	1.434160	-0.018990	-1.609040	1.196880	-0.086230	-1.380360	1.171150	0.023250	-1.384600	1.116570	-0.013880	-1.306260	1.131180	-0.001770	-1.845330	1.441470	0.322430	-1.991290	1.157940	0.415420	-1.986390	0.904940	0.399540	-2.034250	0.920730	0.436470	-2.028860	0.846560	0.438800	-1.797440	0.936910	0.035930	-1.791800	0.959050	0.300040	-1.944770	1.057260	0.111920	-1.945570	1.059390	0.198090	-1.907550	0.644240	0.012640	-1.970230	0.462510	0.040290	-2.066170	0.282610	0.035000	-2.136890	0.090620	0.083600	-2.182320	0.113740	0.119020	-1.996040	0.048760	0.140600	-1.750710	0.671450	0.341710	-1.675440	0.501400	0.310920	-1.640610	0.328820	0.326350	-1.571460	0.106750	0.284160	-1.629620	0.105730	0.246050	-1.421230	0.130660	0.237040	-1.455580	0.100740	0.297950	-2.042060	0.039740	0.052460	-1.685980	0.493180	0.205290	-2.008820	0.466880	0.137650	
206	2.0500	-1.869710	1.472750	0.140300	-1.943040	1.233150	0.141730	-1.741870	1.353240	0.168330	-1.733340	1.198260	0.162540	-1.783410	1.432940	-0.017490	-1.602260	1.195810	-0.084840	-1.373490	1.168760	0.024390	-1.377930	1.114460	-0.013110	-1.299510	1.128810	-0.000980	-1.837630	1.439420	0.324150	-1.981630	1.154860	0.417340	-1.975240	0.901940	0.401070	-2.023000	0.917380	0.438240	-2.017080	0.843270	0.440490	-1.790790	0.935480	0.036440	-1.784040	0.957330	0.300490	-1.937800	1.055720	0.113430	-1.938110	1.057700	0.199600	-1.902460	0.643330	0.013090	-1.966220	0.461930	0.040510	-2.063830	0.282900	0.034980	-2.136360	0.091600	0.083170	-2.181610	0.115110	0.118500	-1.996090	0.048700	0.140490	-1.743080	0.669530	0.342530	-1.668100	0.499400	0.311260	-1.634360	0.326680	0.326570	-1.566650	0.104230	0.284320	-1.624890	0.103660	0.246370	-1.416310	0.126620	0.236840	-1.450900	0.097220	0.297910	-2.041970	0.039620	0.052310	-1.678720	0.491380	0.205650	-2.002940	0.466310	0.138100	
207	2.0600	-1.862520	1.471280	0.142300	-1.935710	1.231650	0.143570	-1.734550	1.351650	0.169500	-1.725950	1.196660	0.163380	-1.776720	1.431780	-0.015900	-1.595560	1.194580	-0.083410	-1.366740	1.165700	0.025510	-1.371490	1.111700	-0.012410	-1.292980	1.125620	-0.000270	-1.829720	1.437410	0.325960	-1.971480	1.151670	0.419370	-1.963500	0.898860	0.402610	-2.011120	0.913920	0.440060	-2.004620	0.839870	0.442210	-1.783900	0.934100	0.037040	-1.776120	0.955690	0.301030	-1.930620	1.054230	0.115000	-1.930480	1.056080	0.201160	-1.897170	0.642520	0.013580	-1.961990	0.461440	0.040740	-2.061320	0.283320	0.034940	-2.135750	0.092740	0.082700	-2.180820	0.116680	0.117920	-1.996110	0.048640	0.140360	-1.735280	0.667740	0.343260	-1.660690	0.497450	0.311600	-1.628530	0.324460	0.326710	-1.562840	0.101550	0.284460	-1.621080	0.101640	0.246530	-1.412240	0.121560	0.236890	-1.447370	0.092930	0.298050	-2.041840	0.039500	0.052190	-1.671330	0.489670	0.205980	-1.996610	0.465730	0.138570	
208	2.0700	-1.855170	1.469920	0.144410	-1.928190	1.230250	0.145500	-1.727060	1.350140	0.170730	-1.718360	1.195160	0.164290	-1.769910	1.430730	-0.014230	-1.588960	1.193190	-0.081940	-1.360150	1.161970	0.026600	-1.365330	1.108320	-0.011780	-1.286700	1.121630	0.000360	-1.821590	1.435470	0.327870	-1.960850	1.148400	0.421480	-1.951170	0.895740	0.404140	-1.998620	0.910380	0.441930	-1.991510	0.836410	0.443950	-1.776750	0.932800	0.037720	-1.768070	0.954150	0.301650	-1.923220	1.052810	0.116610	-1.922700	1.054560	0.202760	-1.891630	0.641790	0.014100	-1.957520	0.461040	0.041020	-2.058600	0.283890	0.034910	-2.135050	0.094040	0.082180	-2.179920	0.118470	0.117290	-1.996100	0.048580	0.140220	-1.727390	0.666130	0.343890	-1.653260	0.495640	0.311950	-1.623070	0.322280	0.326770	-1.559760	0.098880	0.284560	-1.617920	0.099840	0.246490	-1.408750	0.115650	0.237270	-1.444760	0.088050	0.298420	-2.041690	0.039410	0.052100	-1.663830	0.488100	0.206300	-1.989830	0.465140	0.139060	
209	2.0800	-1.847670	1.468710	0.146620	-1.920500	1.228990	0.147500	-1.719400	1.348780	0.172030	-1.710580	1.193820	0.165280	-1.762950	1.429820	-0.012490	-1.582490	1.191640	-0.080460	-1.353730	1.157590	0.027620	-1.359480	1.104310	-0.011230	-1.280710	1.116810	0.000900	-1.813270	1.433650	0.329870	-1.949700	1.145090	0.423640	-1.938250	0.892600	0.405670	-1.985520	0.906820	0.443820	-1.977740	0.832920	0.445700	-1.769340	0.931590	0.038510	-1.759960	0.952780	0.302370	-1.915610	1.051520	0.118220	-1.914790	1.053220	0.204350	-1.885800	0.641180	0.014690	-1.952740	0.460740	0.041380	-2.055650	0.284610	0.034910	-2.134240	0.095560	0.081650	-2.178900	0.120510	0.116630	-1.996060	0.048530	0.140070	-1.719480	0.664760	0.344410	-1.645830	0.494050	0.312370	-1.617850	0.320250	0.326770	-1.557090	0.096410	0.284630	-1.615070	0.098400	0.246240	-1.405550	0.109140	0.238020	-1.442760	0.082780	0.299040	-2.041490	0.039340	0.052050	-1.656240	0.486770	0.206630	-1.982570	0.464560	0.139570	
210	2.0900	-1.839990	1.467710	0.148920	-1.912640	1.227920	0.149540	-1.711560	1.347610	0.173400	-1.702600	1.192660	0.166370	-1.755810	1.429090	-0.010660	-1.576160	1.189950	-0.078950	-1.347540	1.152580	0.028550	-1.353990	1.099670	-0.010740	-1.275060	1.111180	0.001350	-1.804760	1.431990	0.331960	-1.938020	1.141770	0.425840	-1.924770	0.889500	0.407170	-1.971820	0.903270	0.445730	-1.963350	0.829460	0.447450	-1.761690	0.930520	0.039400	-1.751840	0.951630	0.303220	-1.907780	1.050420	0.119790	-1.906790	1.052110	0.205890	-1.879640	0.640670	0.015360	-1.947580	0.460520	0.041840	-2.052410	0.285500	0.034960	-2.133290	0.097310	0.081100	-2.177730	0.122850	0.115950	-1.995980	0.048480	0.139940	-1.711610	0.663670	0.344840	-1.638410	0.492780	0.312870	-1.612750	0.318500	0.326770	-1.554590	0.094270	0.284700	-1.612290	0.097410	0.245830	-1.402450	0.102360	0.239160	-1.441130	0.077380	0.299910	-2.041250	0.039340	0.052080	-1.648570	0.485790	0.207020	-1.974810	0.463970	0.140110	
211	2.1000	-1.832140	1.466940	0.151280	-1.904640	1.227080	0.151590	-1.703570	1.346680	0.174860	-1.694430	1.191750	0.167570	-1.748480	1.428580	-0.008770	-1.570020	1.188130	-0.077440	-1.341630	1.146940	0.029370	-1.348920	1.094420	-0.010330	-1.269810	1.104720	0.001720	-1.796110	1.430520	0.334120	-1.925800	1.138500	0.428040	-1.910710	0.886460	0.408630	-1.957520	0.899780	0.447630	-1.948330	0.826080	0.449200	-1.753800	0.929610	0.040420	-1.743770	0.950730	0.304190	-1.899730	1.049540	0.121270	-1.898700	1.051290	0.207340	-1.873090	0.640270	0.016140	-1.941960	0.460380	0.042420	-2.048830	0.286580	0.035070	-2.132180	0.099340	0.080550	-2.176360	0.125530	0.115260	-1.995850	0.048430	0.139830	-1.703830	0.662900	0.345210	-1.630990	0.491890	0.313480	-1.607630	0.317100	0.326840	-1.552090	0.092500	0.284830	-1.609450	0.096870	0.245360	-1.399370	0.095620	0.240610	-1.439650	0.072060	0.300990	-2.040950	0.039400	0.052180	-1.640820	0.485250	0.207490	-1.966540	0.463380	0.140660	
212	2.1100	-1.824130	1.466420	0.153700	-1.896500	1.226510	0.153620	-1.695420	1.346010	0.176400	-1.686090	1.191100	0.168870	-1.740910	1.428330	-0.006820	-1.564070	1.186170	-0.075940	-1.336040	1.140710	0.030070	-1.344320	1.088570	-0.009990	-1.265020	1.097450	0.001980	-1.787330	1.429300	0.336340	-1.913040	1.135330	0.430200	-1.896090	0.883550	0.410050	-1.942620	0.896420	0.449520	-1.932700	0.822810	0.450920	-1.745690	0.928890	0.041570	-1.735780	0.950150	0.305300	-1.891480	1.048940	0.122650	-1.890550	1.050790	0.208670	-1.866110	0.639970	0.017060	-1.935790	0.460310	0.043110	-2.044870	0.287860	0.035240	-2.130870	0.101680	0.079990	-2.174750	0.128580	0.114570	-1.995690	0.048400	0.139740	-1.696150	0.662440	0.345530	-1.623540	0.491390	0.314210	-1.602420	0.316080	0.327080	-1.549590	0.091070	0.285060	-1.606560	0.096730	0.244960	-1.396390	0.089170	0.242240	-1.438260	0.066950	0.302190	-2.040590	0.039550	0.052360	-1.632990	0.485230	0.208080	-1.957730	0.462780	0.141240	
213	2.1200	-1.815970	1.466160	0.156140	-1.888250	1.226210	0.155620	-1.687150	1.345630	0.178040	-1.677580	1.190730	0.170300	-1.733090	1.428330	-0.004820	-1.558350	1.184090	-0.074450	-1.330820	1.133890	0.030630	-1.340240	1.082120	-0.009710	-1.260760	1.089380	0.002140	-1.778440	1.428340	0.338600	-1.899740	1.132310	0.432310	-1.880900	0.880800	0.411420	-1.927140	0.893220	0.451380	-1.916480	0.819720	0.452610	-1.737390	0.928380	0.042850	-1.727850	0.949890	0.306560	-1.883050	1.048640	0.123920	-1.882330	1.050620	0.209890	-1.858670	0.639780	0.018120	-1.929000	0.460280	0.043870	-2.040460	0.289320	0.035460	-2.129310	0.104340	0.079430	-2.172860	0.132040	0.113860	-1.995500	0.048360	0.139660	-1.688570	0.662270	0.345820	-1.616060	0.491260	0.315060	-1.597130	0.315400	0.327510	-1.547150	0.089890	0.285430	-1.603700	0.096870	0.244720	-1.393610	0.083160	0.243870	-1.436940	0.062170	0.303440	-2.040160	0.039800	0.052630	-1.625070	0.485740	0.208810	-1.948370	0.462190	0.141830	
214	2.1300	-1.807680	1.466160	0.158590	-1.879890	1.226190	0.157590	-1.678760	1.345540	0.179770	-1.668930	1.190660	0.171840	-1.725020	1.428580	-0.002760	-1.552880	1.181890	-0.072990	-1.326010	1.126510	0.031050	-1.336730	1.075090	-0.009490	-1.257070	1.080520	0.002180	-1.769470	1.427670	0.340880	-1.885940	1.129480	0.434340	-1.865170	0.878250	0.412730	-1.911070	0.890250	0.453190	-1.899660	0.816850	0.454260	-1.728920	0.928120	0.044240	-1.719910	0.949970	0.307960	-1.874470	1.048650	0.125100	-1.874020	1.050750	0.211010	-1.850730	0.639670	0.019340	-1.921480	0.460270	0.044690	-2.035550	0.290970	0.035690	-2.127450	0.107360	0.078840	-2.170620	0.135950	0.113140	-1.995290	0.048320	0.139620	-1.681070	0.662340	0.346100	-1.608550	0.491410	0.316000	-1.591830	0.314990	0.328120	-1.544870	0.088890	0.285910	-1.600990	0.097190	0.244680	-1.391120	0.077670	0.245370	-1.435700	0.057770	0.304680	-2.039660	0.040150	0.052970	-1.617100	0.486680	0.209680	-1.938440	0.461600	0.142450	
215	2.1400	-1.799290	1.466410	0.161040	-1.871450	1.226430	0.159520	-1.670280	1.345740	0.181590	-1.660200	1.190860	0.173490	-1.716700	1.429070	-0.000660	-1.547680	1.179600	-0.071580	-1.321670	1.118580	0.031330	-1.333840	1.067500	-0.009320	-1.254030	1.070910	0.002120	-1.760430	1.427320	0.343180	-1.871660	1.126900	0.436270	-1.848890	0.875960	0.413950	-1.894430	0.887530	0.454950	-1.882280	0.814230	0.455840	-1.720310	0.928120	0.045730	-1.711880	0.950370	0.309470	-1.865790	1.048940	0.126230	-1.865610	1.051160	0.212080	-1.842270	0.639650	0.020680	-1.913180	0.460270	0.045510	-2.030060	0.292810	0.035930	-2.125230	0.110750	0.078220	-2.167960	0.140340	0.112390	-1.995060	0.048260	0.139590	-1.673640	0.662610	0.346400	-1.601070	0.491740	0.317010	-1.586570	0.314740	0.328860	-1.542770	0.088020	0.286460	-1.598490	0.097590	0.244830	-1.388960	0.072740	0.246610	-1.434560	0.053820	0.305860	-2.039090	0.040600	0.053370	-1.609170	0.487900	0.210700	-1.927920	0.461000	0.143090	
